<?xml version="1.0" encoding="UTF-8" standalone="no"?>
<!-- Created with Inkscape (http://www.inkscape.org/) -->

<svg
   version="1.1"
   id="svg2"
   width="1195.9583"
   height="587.16498"
   viewBox="0 0 1195.9583 587.16498"
   sodipodi:docname="Backletter-Thunder-Typeface-white.svg"
   inkscape:version="1.2 (dc2aedaf03, 2022-05-15)"
   xmlns:inkscape="http://www.inkscape.org/namespaces/inkscape"
   xmlns:sodipodi="http://sodipodi.sourceforge.net/DTD/sodipodi-0.dtd"
   xmlns="http://www.w3.org/2000/svg"
   xmlns:svg="http://www.w3.org/2000/svg">
  <defs
     id="defs6" />
  <sodipodi:namedview
     id="namedview4"
     pagecolor="#505050"
     bordercolor="#eeeeee"
     borderopacity="1"
     inkscape:showpageshadow="0"
     inkscape:pageopacity="0"
     inkscape:pagecheckerboard="0"
     inkscape:deskcolor="#505050"
     showgrid="false"
     inkscape:zoom="0.39333333"
     inkscape:cx="100.42373"
     inkscape:cy="509.74576"
     inkscape:window-width="1920"
     inkscape:window-height="1001"
     inkscape:window-x="-9"
     inkscape:window-y="-9"
     inkscape:window-maximized="1"
     inkscape:current-layer="g8" />
  <g
     inkscape:groupmode="layer"
     inkscape:label="Image"
     id="g8"
     transform="translate(-984.84766,-12.86366)">
    <path
       style="fill:#ffffff"
       d="m 1200.5217,596.61912 c -0.5548,-2.11802 -1.9163,-7.45541 -3.0257,-11.86088 -8.9768,-35.648 -23.7488,-63.69206 -48.3552,-91.80063 -8.7883,-10.03915 -9.5464,-11.94462 -6.2909,-15.81351 5.1525,-6.12335 4.987,-2.01247 5.3014,-131.70372 0.2513,-103.65302 0.09,-121.28004 -1.1074,-121 -0.7708,0.18029 -8.8714,5.2778 -18.0012,11.3278 l -16.5998,11 -0.022,17.55422 -0.022,17.55422 2.8399,4.44578 c 3.1756,4.97137 15.1573,16.6666 22.4101,21.87422 2.6125,1.87583 4.75,3.72254 4.75,4.1038 0,0.38126 -2.8125,2.09237 -6.25,3.80247 -15.8153,7.86782 -22.6781,17.20916 -23.5365,32.03698 l -0.4579,7.91018 5.1714,1.10906 c 2.8443,0.60999 5.9749,1.10907 6.9568,1.10907 1.5986,0 1.7389,0.81115 1.3408,7.75 -0.3971,6.92277 -0.054,8.92413 3.2186,18.75 5.2847,15.86941 6.1691,24.29046 4.1796,39.80105 -1.8172,14.16689 -5.3135,26.3565 -9.1863,32.02672 -3.1454,4.60533 -4.1049,4.19148 -2.3434,-1.01077 1.8838,-5.56373 1.6181,-16.86218 -0.5472,-23.27205 -1.9621,-5.80817 -6.5298,-14.04495 -7.7886,-14.04495 -0.4165,0 -0.7572,24.075 -0.7572,53.5 0,52.83333 -0.025,53.5 -2,53.5 -1.9766,0 -2,-0.66667 -2,-56.89114 V 411.4859 l -8.3333,-7.85886 c -15.0819,-14.22336 -33.9043,-26.3952 -64.3963,-41.64299 -23.0847,-11.54372 -26.7632,-11.91667 -27.981,-2.83695 -0.304,2.26659 -0.8808,4.12108 -1.2818,4.12108 -0.4009,0 -2.2542,-2.8125 -4.1183,-6.25 -3.1825,-5.86848 -3.3882,-6.82991 -3.3698,-15.75 0.017,-8.22687 0.4009,-10.37109 2.8657,-16 9.9602,-22.74675 40.1217,-50.75459 90.1132,-83.67887 l 16.4305,-10.82113 0.035,-16.25 c 0.02,-8.9375 -0.2707,-16.25 -0.645,-16.25 -2.4939,0 -40.0389,16.01816 -55.3194,23.6015 -38.962,19.33578 -56.0926,34.30458 -62.511,54.62257 -1.369,4.33355 -2.489,9.07094 -2.489,10.52755 0,2.11609 -0.2508,2.39761 -1.2477,1.40069 -2.0285,-2.02844 -1.6006,-21.22275 0.6718,-30.14083 2.4877,-9.76287 13.4262,-31.22268 26.5114,-52.01148 10.6739,-16.95795 16.0623,-27.12711 16.0637,-30.31574 0,-3.7909 2.1463,-5.54777 10.4324,-8.54604 10.1023,-3.65545 31.2922,-9.81923 48.5684,-14.12771 6.875,-1.71455 14.1875,-3.56067 16.25,-4.10248 l 3.75,-0.98512 v -9.96145 c 0,-9.29479 0.1338,-9.96146 2,-9.96146 1.8596,0 2,0.66667 2,9.5 0,5.225 0.2942,9.5 0.6538,9.5 0.7415,0 70.2739,-14.31165 92.3462,-19.00734 24.3653,-5.18351 58.8972,-13.82526 70.5,-17.64292 46.768,-15.388076 68.3388,-32.60316 69.327,-55.328023 0.306,-7.036759 0.1239,-7.82604 -2.8244,-12.241876 -1.7416,-2.608312 -5.2179,-5.963891 -7.77,-7.5 -2.5401,-1.52891 -6.3316,-4.486285 -8.4255,-6.571944 -4.7951,-4.776129 -5.2796,-9.975952 -1.2798,-13.733579 7.504,-7.049671 18.4569,2.090927 24.5953,20.525686 3.204,9.622155 3.2452,23.089672 0.1016,33.175363 -7.584,24.331847 -38.0546,50.059983 -125.4891,105.957743 l -25.2351,16.13311 -0.3041,147.36689 c -0.2908,140.96663 0.351,195.21716 2.866,242.24776 0.5553,10.38449 0.7981,19.09241 0.5396,19.35095 -0.2586,0.25853 -0.924,-1.26286 -1.4788,-3.38088 z m -92.1227,-246.1795 c 0,-3.71273 -0.707,-5.8959 -3.0594,-9.44736 -3.8721,-5.8458 -16.1602,-20.02527 -25.6405,-29.58698 -4.0151,-4.0496 -7.3001,-7.47858 -7.3001,-7.61995 0,-0.14138 1.9636,-0.47838 4.3637,-0.7489 7.2906,-0.82176 13.5723,-4.64683 22.8863,-13.93603 l 8.75,-8.72673 v -15.05274 c 0,-8.27901 -0.3107,-15.05275 -0.6903,-15.05275 -2.1088,0 -25.3209,18.90436 -34.3097,27.94246 -14.4467,14.5258 -20.8932,26.09508 -20.9674,37.6294 -0.078,12.11732 6.0122,20.68108 19.7098,27.71498 11.2584,5.78137 27.3061,11.33557 33.5076,11.59716 2.6363,0.11121 2.75,-0.0836 2.75,-4.71256 z m 22.1934,-132.97259 c 17.1989,-10.3375 33.4321,-19.66828 84.8066,-48.74659 28.665,-16.22463 47.3654,-27.38856 45.9548,-27.43451 -0.2999,-0.01 -5.6999,2.27155 -12,5.06958 -21.1324,9.38534 -48.1996,19.44138 -107.4548,39.92175 -14.85,5.1326 -27.5625,9.76036 -28.25,10.28391 -1.521,1.15827 -1.8161,30.70701 -0.3066,30.70701 0.5188,0 8.2813,-4.41052 17.25,-9.80115 z m 688.8065,273.72703 c -16.7072,-10.27368 -25.1137,-16.83266 -37.5832,-29.32361 -9.5128,-9.52921 -11.709,-12.36653 -15.5,-20.02513 l -4.4168,-8.92285 -0.5,-73.17978 -0.5,-73.17978 -3.5,-6.85302 c -3.2652,-6.39344 -5.8863,-9.13897 -13.7867,-14.44171 -2.1783,-1.4621 -1.6913,-1.92756 19.276,-18.42196 11.8309,-9.30707 21.5107,-16.99905 21.5107,-17.09328 0,-0.0942 -7.3571,-7.55435 -16.349,-16.57804 -18.223,-18.28718 -22.2711,-24.1917 -25.6538,-37.41789 -8.2046,-32.07942 9.3289,-71.97948 41.116,-93.565656 12.2756,-8.336186 19.8658,-10.035097 24.4323,-5.468625 3.1683,3.168342 3.1105,5.884285 -0.1803,8.472875 -3.1115,2.4475 -5.2696,2.6121 -7.924,0.60438 -5.0609,-3.82786 -17.0244,0.42308 -22.9198,8.14397 -5.4707,7.164796 -7.0311,13.068146 -6.9579,26.324226 0.055,9.91797 0.4482,12.60054 2.8603,19.5 6.4721,18.51267 14.0678,28.65193 46.0075,61.41423 21.4188,21.97047 33.7656,35.67023 44.2382,49.08577 19.6779,25.20763 34.9995,60.94279 39.8742,93 5.3904,35.44919 -3.9307,73.96503 -25.0691,103.58778 -9.0043,12.61853 -42.8476,50.75918 -45.3965,51.16097 -0.8679,0.13681 -6.7531,-2.93348 -13.0781,-6.82287 z m 39.3535,-31.19107 c 5.447,-7.39955 10.4362,-17.69247 12.8932,-26.59916 2.8628,-10.37806 3.0789,-38.12197 0.4022,-51.63565 -4.9214,-24.84655 -14.6406,-49.71395 -31.0716,-79.5 -10.2519,-18.58441 -34.0729,-53 -36.6844,-53 -0.5165,0 -0.8864,33.61744 -0.8775,79.75 0.014,75.38615 0.1207,80.16814 1.9412,87.39148 2.4087,9.5569 4.0788,13.57342 8.149,19.59747 8.7381,12.93274 18.7963,21.45144 31.6146,26.77578 8.2502,3.42684 9.2081,3.23151 13.6333,-2.77992 z m 101.6138,13.49308 -31.4673,-24.78197 -0.5,-64.97296 c -0.4428,-57.54537 -0.6904,-65.44582 -2.1655,-69.10927 -2.7351,-6.79267 -4.766,-10.28042 -8.253,-14.17343 l -3.3054,-3.69026 36.0159,-29 c 19.8087,-15.95 36.5091,-29.09865 37.1119,-29.21923 0.6029,-0.12058 3.1211,2.33201 5.5961,5.45021 2.475,3.11819 13.1625,16.2037 23.75,29.0789 10.5875,12.87521 19.2157,23.69761 19.1737,24.04979 -0.042,0.35218 -8.0295,7.14518 -17.75,15.09556 -9.7205,7.95038 -24.5298,20.10038 -32.9094,27 l -15.2357,12.54477 0.2357,38.5 0.2357,38.5 22.4431,16.92447 22.4432,16.92447 7.7556,-8.42447 c 7.3621,-7.99708 7.8441,-8.33673 9.5005,-6.69508 1.6595,1.64472 1.6451,1.84056 -0.2955,4 -1.1222,1.24884 -10.0417,11.49561 -19.8211,22.77061 -9.7795,11.275 -18.5256,21.28972 -19.436,22.25493 -1.5632,1.65734 -3.4052,0.37677 -33.1225,-23.02704 z m 26.9904,-144.37056 c 7.7233,-6.18084 14.0423,-11.55508 14.0423,-11.94278 0,-0.92556 -28.9177,-34.31469 -30.0944,-34.74788 -0.5279,-0.19431 -0.9056,12.04994 -0.9056,29.35699 0,25.59791 0.201,29.61321 1.4578,29.13093 0.8017,-0.30766 7.7767,-5.61643 15.4999,-11.79726 z m -694.064,156.78613 c -20.775,-18.87821 -32.5924,-32.96273 -38.954,-46.42695 -6.1155,-12.94364 -5.9087,-8.48808 -5.9249,-127.62555 l -0.015,-108.90904 -4.6961,-4.3115 c -2.5829,-2.37133 -4.4954,-4.47176 -4.25,-4.66763 0.2454,-0.19587 4.2711,-2.48218 8.9461,-5.08069 16.951,-9.42187 43.6729,-29.46834 64.5,-48.38712 11.6072,-10.54361 20.0134,-20.07865 24.6627,-27.97443 3.3451,-5.68075 3.6727,-3.56816 0.685,4.41714 -2.1275,5.68611 -13.3578,23.15201 -24.08,37.45018 -9.3059,12.40959 -16.7089,24.105 -18.8089,29.71491 -1.963,5.24357 -1.9951,7.44407 -1.7294,118.5 0.2698,112.80281 0.2773,113.17467 2.405,118.72765 2.2855,5.96484 9.3676,17.92957 10.6128,17.92957 0.4141,0 0.7528,-42.76445 0.7528,-95.03212 0,-77.42092 0.2497,-95.62845 1.3472,-98.25 1.6258,-3.88373 8.6098,-10.38414 13.2312,-12.31505 2.6608,-1.11178 10.5146,-1.40283 37.8543,-1.40283 33.0827,0 34.5394,0.0793 35.5322,1.93426 0.6931,1.29524 1.0351,34.01557 1.0351,99.04216 0,107.66155 -0.023,107.22781 6.315,117.87272 3.0036,5.04437 8.7864,11.15086 10.5598,11.15086 0.4429,0 4.1397,-3.79308 8.2152,-8.42907 4.0755,-4.63599 7.6615,-8.46099 7.9689,-8.5 0.3074,-0.039 1.3806,0.52994 2.385,1.26433 1.681,1.22918 0.1384,3.27485 -19.4169,25.75 -11.6836,13.42811 -21.6026,24.55084 -22.0422,24.71718 -1.3793,0.52185 -19.9872,-17.94752 -24.6123,-24.42898 -2.428,-3.40253 -6.1684,-9.941 -8.312,-14.52994 -7.1443,-15.2941 -7.0605,-14.05543 -7.0605,-104.30136 v -80.54216 l -11.75,0.002 c -13.4303,0.002 -17.2035,1.24324 -20.9857,6.90476 l -2.2756,3.40631 0.2557,83.5281 0.2556,83.5281 8.1704,6.06559 c 4.4937,3.33607 8.2062,6.45536 8.25,6.93174 0.067,0.7255 -25.6832,33.63385 -26.3176,33.63385 -0.1163,0 -5.8355,-5.11044 -12.7091,-11.35654 z m 262.375,3.6395 c -11.7325,-11.36657 -17.9751,-21.66015 -24.6146,-40.58721 -0.4944,-1.40945 -5.1279,3.40459 -21.175,22 -11.2981,13.09234 -21.1628,24.22668 -21.9215,24.74299 -1.0024,0.68211 -3.9805,-1.01623 -10.8934,-6.2123 -26.9246,-20.2378 -38.8601,-34.64186 -44.5481,-53.76168 -3.6698,-12.33574 -4.1159,-21.85362 -4.1216,-87.93853 0,-41.34329 -0.3763,-65.44333 -1.052,-68.02623 -1.9794,-7.56654 -3.0572,-9.33185 -6.5473,-10.72391 l -3.4204,-1.36423 25.684,-16.95593 c 14.1262,-9.32576 26.273,-17.0997 26.9928,-17.27543 1.0698,-0.26118 1.3579,16.89432 1.5786,94 l 0.2699,94.3195 3.3939,8 c 4.1432,9.76592 6.8544,13.54278 12.5197,17.44062 4.7565,3.27255 16.4674,7.51799 23.6102,8.5592 l 4.5238,0.65943 6.4762,-7.82962 6.4762,-7.82963 -0.5,-82.5 c -0.5441,-89.77556 -0.3823,-87.3526 -6.1037,-91.36004 -1.4329,-1.00362 -1.9494,-1.95867 -1.3556,-2.50653 1.6105,-1.48598 46.5062,-31.2142 48.0131,-31.79247 1.2056,-0.46265 1.4481,14.24878 1.6777,101.80912 l 0.2685,102.34992 2.3255,6.86444 c 1.8412,5.43477 3.5175,8.09022 8.049,12.75 3.148,3.23706 6.1515,5.86067 6.6745,5.83025 0.523,-0.0304 4.2474,-3.96792 8.2763,-8.75 l 7.3253,-8.69469 -0.095,-70.42812 c -0.1008,-74.92163 -0.2593,-77.66993 -5.0174,-86.99648 -1.0892,-2.13507 -3.566,-5.18897 -5.5041,-6.78644 l -3.5236,-2.9045 27.4528,-22.19223 c 15.099,-12.20573 27.9216,-22.19223 28.4946,-22.19223 0.7157,0 1.0418,32.19763 1.0418,102.85078 0,100.94772 0.2328,109.14922 3.0979,109.14922 0.5294,0 0.905,-36.67077 0.9091,-88.75 0.01,-84.20382 0.1058,-89.1598 1.9353,-96.75 3.5092,-14.55873 7.2209,-20.95154 14.3657,-24.74304 3.8997,-2.06946 5.9703,-2.27156 29.692,-2.89811 26.67,-0.70442 33.8855,-1.7191 42.1284,-5.92435 2.236,-1.14071 4.2291,-1.91039 4.4291,-1.7104 0.2,0.19999 -0.964,2.36888 -2.5866,4.81976 -1.6226,2.45088 -4.1923,7.83114 -5.7105,11.95614 l -2.7604,7.5 v 95 95 l 2.2524,7.16312 c 2.5048,7.96586 5.726,11.53028 12.0287,13.31039 4.0593,1.14652 4.2631,0.99602 14.0876,-10.40444 2.6938,-3.1258 3.6956,-3.70289 5,-2.88009 0.8973,0.56595 1.6313,1.48456 1.6313,2.04136 0,0.5568 -8.775,11.06736 -19.5,23.35678 -10.725,12.28943 -20.2294,23.23715 -21.1208,24.32828 -1.5559,1.90429 -1.7271,1.91427 -4.2687,0.24896 -10.1938,-6.67926 -22.9631,-22.31538 -27.9004,-34.16436 -4.4649,-10.7153 -4.7101,-15.76629 -4.7101,-97.03726 0,-85.43094 0.427,-80.2258 -6.9099,-84.23696 -8.2764,-4.52479 -18.1541,-3.38982 -24.3458,2.79737 l -3.7557,3.75303 0.2557,83.86191 0.2557,83.86191 6.2247,3 c 3.4236,1.65 6.2361,3.23394 6.25,3.51986 0.037,0.75551 -27.9095,35.43051 -28.8091,35.74553 -1.4295,0.50058 -15.045,-11.76063 -19.5255,-17.58344 -5.6122,-7.29347 -11.1349,-17.35915 -12.6173,-22.99663 -0.6241,-2.37307 -1.531,-4.17307 -2.0153,-4 -0.4844,0.17307 -9.5052,10.21468 -20.0463,22.31468 -10.5411,12.1 -19.5016,22.12733 -19.9123,22.28296 -0.4106,0.15563 -4.3617,-3.21937 -8.7802,-7.5 z m 536.3129,1.56489 c -20.472,-12.80763 -34.241,-29.79018 -41.2261,-50.84785 l -2.8196,-8.5 -0.5179,-75 c -0.5732,-82.99234 -0.1702,-78.08063 -7.1194,-86.76137 l -3.0111,-3.76138 25.8062,-16.98933 25.8063,-16.98933 0.5,97.75071 0.5,97.7507 2.5,4.5 2.5,4.5 0.5013,-84 c 0.4759,-79.75734 0.5982,-84.25254 2.4214,-89 2.4959,-6.49943 12.6101,-16.81774 18.1345,-18.50052 2.1967,-0.66916 14.571,-1.5508 27.9428,-1.99086 23.709,-0.78026 30.9032,-1.85975 35.2742,-5.29284 3.593,-2.8221 1.3798,1.51649 -7.8692,15.42612 -5.6167,8.44695 -11.974,19.09048 -14.1274,23.65229 -7.3661,15.60467 -11.2135,36.11632 -10.6289,56.66636 0.1932,6.79213 0.043,12.15878 -0.3332,11.92588 -1.3578,-0.84002 -6.6762,-16.06035 -8.3465,-23.88643 -1.5469,-7.2473 -2.0921,-26.41493 -1.1805,-41.5 l 0.2115,-3.5 -10.2746,-0.28525 c -12.8734,-0.35741 -16.1263,0.91962 -19.4312,7.62822 l -2.2942,4.65703 -0.2733,78.64497 -0.2734,78.64498 5.9752,5.35502 c 3.2863,2.94527 8.6021,6.78268 11.8127,8.52758 l 5.8376,3.17255 7.7686,-8.92255 c 4.2726,-4.9074 8.1373,-8.92255 8.5881,-8.92255 0.4508,0 1.3781,0.67289 2.0606,1.4953 1.0348,1.2469 0.183,2.7047 -5.1276,8.77542 -3.5027,4.00407 -13.0992,15.03118 -21.3255,24.5047 -8.2264,9.47352 -15.6704,17.22458 -16.5423,17.22458 -0.872,0 -6.0105,-2.76847 -11.4191,-6.15215 z"
       id="path170" />
  </g>
</svg>
